<svg xmlns="http://www.w3.org/2000/svg" viewBox="0 0 641.85 428.78"><defs><style></style></defs><g id="Layer_2" data-name="Layer 2"><g id="Layer_1-2" data-name="Layer 1"><text class="cls-1" transform="translate(0 258.8)">Li<tspan class="cls-2" x="83.22" y="0">f</tspan><tspan x="120.34" y="0">e</tspan><tspan class="cls-3" x="177.8" y="0">house</tspan></text><text class="cls-4" transform="translate(174.63 315.56)">CRE<tspan class="cls-5" x="103.43" y="0">A</tspan><tspan class="cls-6" x="137.18" y="0">TIVES</tspan></text><path class="cls-3" d="M415.85,376.57a5.23,5.23,0,1,1,0-10.46c75.38,0,136.7-61.33,136.7-136.7S491.23,92.7,415.85,92.7a137.29,137.29,0,0,0-118.18,67.94,5.23,5.23,0,1,1-9-5.27A147.77,147.77,0,0,1,415.85,82.24C497,82.24,563,148.26,563,229.41S497,376.57,415.85,376.57Z"/><path class="cls-3" d="M415.85,66.55a5.23,5.23,0,0,1-5.23-5.23V5.23a5.23,5.23,0,1,1,10.46,0V61.32A5.23,5.23,0,0,1,415.85,66.55Z"/><path class="cls-3" d="M344.81,82.3a5.23,5.23,0,0,1-4.74-3l-23.7-50.84A5.23,5.23,0,0,1,325.85,24l23.7,50.84a5.23,5.23,0,0,1-2.53,7A5.29,5.29,0,0,1,344.81,82.3Z"/><path class="cls-3" d="M287.08,126.59a5.21,5.21,0,0,1-3.36-1.22l-43-36.05a5.23,5.23,0,1,1,6.72-8l43,36.05a5.23,5.23,0,0,1-3.37,9.24Z"/><path class="cls-3" d="M486.88,82.3a5.23,5.23,0,0,1-4.74-7.44L505.85,24a5.23,5.23,0,1,1,9.48,4.42L491.62,79.28A5.22,5.22,0,0,1,486.88,82.3Z"/><path class="cls-3" d="M544.61,126.59a5.23,5.23,0,0,1-3.36-9.24l43-36a5.23,5.23,0,0,1,6.73,8l-43,36.05A5.21,5.21,0,0,1,544.61,126.59Z"/><path class="cls-3" d="M578.2,191.13a5.23,5.23,0,0,1-1.35-10.28L631,166.33a5.23,5.23,0,0,1,2.71,10.11L579.56,191A5.3,5.3,0,0,1,578.2,191.13Z"/><path class="cls-3" d="M636.62,273.56a4.73,4.73,0,0,1-.91-.08l-55.24-9.73a5.23,5.23,0,0,1,1.82-10.31l55.23,9.74a5.23,5.23,0,0,1-.9,10.38Z"/><path class="cls-3" d="M599.48,363.22a5.2,5.2,0,0,1-3-1L550.54,330.1a5.23,5.23,0,1,1,6-8.57l45.94,32.17a5.23,5.23,0,0,1-3,9.52Z"/><path class="cls-3" d="M527.94,428.78a5.24,5.24,0,0,1-4.54-2.62l-28-48.57a5.23,5.23,0,0,1,9.06-5.23l28,48.57a5.23,5.23,0,0,1-4.52,7.85Z"/></g></g></svg>